<svg version="1.1" id="Logo" xmlns="http://www.w3.org/2000/svg" x="0" y="0" viewBox="0 0 50 50" xml:space="preserve">
  <style>
    .st1{fill:#126846}
  </style>
  <path d="M47.6 26c0 3.4-.9 6.6-2.4 9.4-.5 1-1.2 1.9-1.9 2.8-1 1.2-2.1 2.3-3.3 3.2-3.3 2.5-7.4 4-11.8 4H27h-1.3c-2.8 0-5.5.6-7.9 1.7-.3.2-.7.3-1 .5 0 0-.1 0-.2.1-2.3 1.1-4.7 1.9-7.3 2.3.4-.7.7-1.5 1.1-2.2.9-2.2 1.4-4.6 1.4-7.1 0-2.2-.4-4.4-1.1-6.3-.3-.6-.6-1.3-.8-1.9-.7-2-1.1-4.1-1.1-6.3 0-6.5 3.2-12.3 8.2-15.8 1-.7 2.1-1.4 3.3-1.9 1-.4 2-.8 3.1-1.1 1.5-.4 3.2-.6 4.8-.6 1.5 0 3 .2 4.4.5.1 0 .3.1.4.1C41.4 9.3 47.6 17 47.6 26z" fill="#61c193"/>
  <path class="st1" d="M31.4 3c-2.7 0-5.4.7-7.8 1.9.7-1.8 2.5-3.1 4.6-3.1 1.2-.1 2.4.4 3.2 1.2zM33.1 6.6v.6c-.2 1.5-1 2.7-2.2 3.5-.8.5-1.7.8-2.6.8-2.5 0-4.5-1.9-4.8-4.3v-.6-.2C26 5 28.9 4.3 32.1 4.3h.4c.4.7.6 1.5.6 2.3z"/>
  <path class="st1" d="M47.6 0c-.2 10.1-3.4 19.5-8.6 27.3-2.2 3.2-4.7 6.2-7.6 8.9-2.7 2.6-5.9 4.7-9.3 6.2-.1 0-.3.1-.4.1l-1.5.6c-2.7 1.2-5.3 2.6-7.7 4.3.6-.9 1.2-1.8 1.7-2.8.3-.5.5-1 .8-1.5 1.2-2.6 2.1-5.4 2.6-8.3.1-.4.1-.7.2-1.1v-.5c0-3.9-3-7-6.8-7.3-1.6.1-3 .5-4.4 1.1-1.4.6-2.6 1.4-3.6 2.4C5 23.6 9.6 19 15.5 17.1c.6-.2 1.2-.3 1.8-.5.6-.1 1.1-.2 1.7-.3.6-.1 1.1-.1 1.7-.1h.5c4.2-.2 8.2-1.1 11.8-2.8 2.9-1.3 5.6-3 7.9-5.1C43.6 6 45.8 3.1 47.6 0z"/>
</svg>
