<svg xmlns="http://www.w3.org/2000/svg" viewBox="0 0 200 50">
  <style>
    .st1{fill:#126846}
  </style>
  <g id="Logo">
    <path d="M44.6 26c0 3.4-.9 6.6-2.4 9.4-.5 1-1.2 1.9-1.9 2.8-1 1.2-2.1 2.3-3.3 3.2-3.3 2.5-7.4 4-11.8 4H24h-1.3c-2.8 0-5.5.6-7.9 1.7-.3.2-.7.3-1 .5 0 0-.1 0-.2.1-2.3 1.1-4.7 1.9-7.3 2.3.4-.7.7-1.5 1.1-2.2.9-2.2 1.4-4.6 1.4-7.1 0-2.2-.4-4.4-1.1-6.3-.3-.6-.6-1.3-.8-1.9-.7-2-1.1-4.1-1.1-6.3 0-6.5 3.2-12.3 8.2-15.8 1-.7 2.1-1.4 3.3-1.9 1-.4 2-.8 3.1-1.1 1.5-.4 3.2-.6 4.8-.6 1.5 0 3 .2 4.4.5.1 0 .3.1.4.1C38.4 9.3 44.6 17 44.6 26z" fill="#61c193"/>
    <path class="st1" d="M28.4 3c-2.7 0-5.4.7-7.8 1.9.7-1.8 2.5-3.1 4.6-3.1 1.2-.1 2.4.4 3.2 1.2zM30.1 6.6v.6c-.2 1.5-1 2.7-2.2 3.5-.8.5-1.7.8-2.6.8-2.5 0-4.5-1.9-4.8-4.3v-.6-.2C23 5 25.9 4.3 29.1 4.3h.4c.4.7.6 1.5.6 2.3z"/>
    <path class="st1" d="M44.6 0c-.2 10.1-3.4 19.5-8.6 27.3-2.2 3.2-4.7 6.2-7.6 8.9-2.7 2.6-5.9 4.7-9.3 6.2-.1 0-.3.1-.4.1l-1.5.6c-2.7 1.2-5.3 2.6-7.7 4.3.6-.9 1.2-1.8 1.7-2.8.3-.5.5-1 .8-1.5 1.2-2.6 2.1-5.4 2.6-8.3.1-.4.1-.7.2-1.1v-.5c0-3.9-3-7-6.8-7.3-1.6.1-3 .5-4.4 1.1-1.4.6-2.6 1.4-3.6 2.4C2 23.6 6.6 19 12.5 17.1c.6-.2 1.2-.3 1.8-.5.6-.1 1.1-.2 1.7-.3.6-.1 1.1-.1 1.7-.1h.5c4.2-.2 8.2-1.1 11.8-2.8 2.9-1.3 5.6-3 7.9-5.1C40.6 6 42.8 3.1 44.6 0z"/>
  </g>
  <g id="Type">
    <path class="st1" d="M74.2 24.7c0 2.9-1 5.3-3 7.3s-4.4 3-7.3 3c-1.8 0-3.5-.4-5.1-1.3v11.8h-5.2V24.7c0-2.9 1-5.3 3-7.3s4.4-3 7.3-3c2.9 0 5.3 1 7.3 3s3 4.5 3 7.3zm-5.2 0c0-1.4-.5-2.6-1.5-3.6s-2.2-1.5-3.6-1.5-2.6.5-3.6 1.5-1.5 2.2-1.5 3.6.5 2.6 1.5 3.6 2.2 1.5 3.6 1.5 2.6-.5 3.6-1.5 1.5-2.2 1.5-3.6zM82.1 34.4h-5.2V4h5.2v30.4zM109.5 34.4H104l-1.1-3c-2 2.4-4.7 3.6-7.8 3.6-2.9 0-5.3-1-7.3-3s-3-4.4-3-7.3c0-2.2.6-4.1 1.8-5.9 1.2-1.8 2.9-3 4.9-3.7 1.2-.4 2.4-.7 3.5-.7 2.2 0 4.1.6 5.9 1.9 1.8 1.2 3 2.9 3.7 4.9l4.9 13.2zm-9.4-9.6c0-1.8-.7-3.2-2.2-4.2-.8-.6-1.8-.9-2.9-.9-1.8 0-3.2.7-4.2 2.2-.6.9-.9 1.9-.9 2.9 0 1.8.7 3.2 2.2 4.2.9.6 1.9.9 2.9.9 1.4 0 2.6-.5 3.6-1.5s1.5-2.2 1.5-3.6zM132.8 34.6c0 2.9-1 5.3-3 7.3s-4.4 3-7.3 3v-5.2c1.4 0 2.6-.5 3.6-1.5s1.5-2.2 1.5-3.6v-.9c-1.6.9-3.3 1.3-5.1 1.3-2.9 0-5.3-1-7.3-3s-3-4.4-3-7.3V14.5h5.2v10.3c0 1.4.5 2.6 1.5 3.6s2.2 1.5 3.6 1.5 2.6-.5 3.6-1.5 1.5-2.2 1.5-3.6V14.5h5.2v20.1zM156 24.7c0 .5 0 1-.1 1.5h-15c.3 1.1.9 1.9 1.8 2.6.9.7 1.9 1 3 1 1.6 0 2.9-.6 3.9-1.8l3.2 4.2c-2 1.9-4.3 2.8-7 2.8-2.9 0-5.3-1-7.3-3s-3-4.4-3-7.3c0-2.9 1-5.3 3-7.3s4.4-3 7.3-3c2.9 0 5.3 1 7.3 3 1.9 2 2.9 4.4 2.9 7.3zm-5.8-2.3c-.9-1.8-2.4-2.7-4.5-2.7s-3.5.9-4.5 2.7h9zM169 19.7c-1.4 0-2.6.5-3.6 1.5s-1.5 2.2-1.5 3.6v9.7h-5.2v-9.7c0-2.9 1-5.3 3-7.3s4.4-3 7.3-3v5.2zM176.7 34.4h-5.2V4h5.2v30.4zM200 34.6c0 2.9-1 5.3-3 7.3s-4.4 3-7.3 3v-5.2c1.4 0 2.6-.5 3.6-1.5s1.5-2.2 1.5-3.6v-.9c-1.6.9-3.3 1.3-5.1 1.3-2.9 0-5.3-1-7.3-3s-3-4.4-3-7.3V14.5h5.2v10.3c0 1.4.5 2.6 1.5 3.6s2.2 1.5 3.6 1.5 2.6-.5 3.6-1.5 1.5-2.2 1.5-3.6V14.5h5.2v20.1z"/>
  </g>
</svg>
